{
  "accessors": [
    {
      "bufferView": 2,
      "componentType": 5126,
      "count": 65532,
      "max": [
        0.67904698848724365,
        1,
        0.57207697629928589
      ],
      "min": [
        -0.67904698848724365,
        -1,
        -0.57207697629928589
      ],
      "type": "VEC3"
    },
    {
      "bufferView": 2,
      "byteOffset": 786384,
      "componentType": 5126,
      "count": 65532,
      "max": [
        0.99999910593032837,
        0.77330029010772705,
        0.99999010562896729
      ],
      "min": [
        -0.99998962879180908,
        -0.99987858533859253,
        -0.99997156858444214
      ],
      "type": "VEC3"
    },
    {
      "bufferView": 3,
      "componentType": 5126,
      "count": 65532,
      "max": [
        0.99991220235824585,
        0.99988329410552979,
        0.99999898672103882,
        1
      ],
      "min": [
        -0.99999541044235229,
        -0.99965399503707886,
        -0.99998730421066284,
        -1
      ],
      "type": "VEC4"
    },
    {
      "bufferView": 1,
      "componentType": 5126,
      "count": 65532,
      "max": [
        0.98294001817703247,
        0.9389299750328064
      ],
      "min": [
        0.076690003275871277,
        0.053070001304149628
      ],
      "type": "VEC2"
    },
    {
      "bufferView": 0,
      "componentType": 5125,
      "count": 383817,
      "max": [
        65531
      ],
      "min": [
        0
      ],
      "type": "SCALAR"
    },
    {
      "bufferView": 2,
      "byteOffset": 1572768,
      "componentType": 5126,
      "count": 5242,
      "max": [
        0.54185998439788818,
        -0.63765197992324829,
        0.22597600519657135
      ],
      "min": [
        0.31935000419616699,
        -0.99773001670837402,
        -0.23066499829292297
      ],
      "type": "VEC3"
    },
    {
      "bufferView": 2,
      "byteOffset": 1635672,
      "componentType": 5126,
      "count": 5242,
      "max": [
        0.97726809978485107,
        0.46300205588340759,
        0.99991166591644287
      ],
      "min": [
        -0.9997747540473938,
        -0.99972432851791382,
        -0.99953025579452515
      ],
      "type": "VEC3"
    },
    {
      "bufferView": 3,
      "byteOffset": 1048512,
      "componentType": 5126,
      "count": 5242,
      "max": [
        0.99956542253494263,
        0.87067341804504395,
        0.99838602542877197,
        1
      ],
      "min": [
        -0.99917614459991455,
        -0.91888827085494995,
        -0.98985755443572998,
        1
      ],
      "type": "VEC4"
    },
    {
      "bufferView": 1,
      "byteOffset": 524256,
      "componentType": 5126,
      "count": 5242,
      "max": [
        0.78290998935699463,
        0.94304001331329346
      ],
      "min": [
        0.23914200067520142,
        0.80826097726821899
      ],
      "type": "VEC2"
    },
    {
      "bufferView": 0,
      "byteOffset": 1535268,
      "componentType": 5125,
      "count": 28407,
      "max": [
        5241
      ],
      "min": [
        0
      ],
      "type": "SCALAR"
    }
  ],
  "asset": {
    "extras": {
      "author": "kevinruiz (https://sketchfab.com/kevinruiz)",
      "license": "CC-BY-4.0 (http://creativecommons.org/licenses/by/4.0/)",
      "source": "https://sketchfab.com/3d-models/hand-a43c9c9059b24e2aa4af08d1a76f0916",
      "title": "hand"
    },
    "generator": "Sketchfab-9.85.0",
    "version": "2.0"
  },
  "bufferViews": [
    {
      "buffer": 0,
      "byteLength": 1648896,
      "byteOffset": 0,
      "name": "floatBufferViews",
      "target": 34963
    },
    {
      "buffer": 0,
      "byteLength": 566192,
      "byteOffset": 1648896,
      "byteStride": 8,
      "name": "floatBufferViews",
      "target": 34962
    },
    {
      "buffer": 0,
      "byteLength": 1698576,
      "byteOffset": 2215088,
      "byteStride": 12,
      "name": "floatBufferViews",
      "target": 34962
    },
    {
      "buffer": 0,
      "byteLength": 1132384,
      "byteOffset": 3913664,
      "byteStride": 16,
      "name": "floatBufferViews",
      "target": 34962
    }
  ],
  "buffers": [
    {
      "byteLength": 5046048,
      "uri": "scene.bin"
    }
  ],
  "images": [
    {
      "uri": "textures/Hands_Low_defaultMat1_baseColor.jpeg"
    },
    {
      "uri": "textures/Hands_Low_defaultMat1_metallicRoughness.png"
    },
    {
      "uri": "textures/Hands_Low_defaultMat1_normal.png"
    }
  ],
  "materials": [
    {
      "doubleSided": true,
      "name": "Hands_Low_defaultMat1",
      "normalTexture": {
        "index": 2,
        "scale": 1,
        "texCoord": 0
      },
      "occlusionTexture": {
        "index": 1,
        "strength": 1,
        "texCoord": 0
      },
      "pbrMetallicRoughness": {
        "baseColorFactor": [
          1,
          1,
          1,
          1
        ],
        "baseColorTexture": {
          "index": 0,
          "texCoord": 0
        },
        "metallicFactor": 1,
        "metallicRoughnessTexture": {
          "index": 1,
          "texCoord": 0
        },
        "roughnessFactor": 1
      }
    }
  ],
  "meshes": [
    {
      "name": "defaultMaterial",
      "primitives": [
        {
          "attributes": {
            "NORMAL": 1,
            "POSITION": 0,
            "TANGENT": 2,
            "TEXCOORD_0": 3
          },
          "indices": 4,
          "material": 0,
          "mode": 4
        }
      ]
    },
    {
      "name": "defaultMaterial",
      "primitives": [
        {
          "attributes": {
            "NORMAL": 6,
            "POSITION": 5,
            "TANGENT": 7,
            "TEXCOORD_0": 8
          },
          "indices": 9,
          "material": 0,
          "mode": 4
        }
      ]
    }
  ],
  "nodes": [
    {
      "children": [
        1
      ],
      "name": "RootNode (gltf orientation matrix)",
      "rotation": [
        -0.70710678118654746,
        -0,
        -0,
        0.70710678118654757
      ]
    },
    {
      "children": [
        2
      ],
      "name": "RootNode (model correction matrix)"
    },
    {
      "children": [
        3
      ],
      "matrix": [
        1,
        0,
        0,
        0,
        0,
        -4.3711390063094768e-08,
        0.999999999999999,
        0,
        0,
        -0.999999999999999,
        -4.3711390063094768e-08,
        0,
        0,
        0,
        0,
        1
      ],
      "name": "Collada visual scene group"
    },
    {
      "children": [
        4,
        5
      ],
      "name": "Hands_Low:Group52896"
    },
    {
      "mesh": 0,
      "name": "defaultMaterial"
    },
    {
      "mesh": 1,
      "name": "defaultMaterial"
    }
  ],
  "samplers": [
    {
      "magFilter": 9729,
      "minFilter": 9987,
      "wrapS": 10497,
      "wrapT": 10497
    }
  ],
  "scene": 0,
  "scenes": [
    {
      "name": "OSG_Scene",
      "nodes": [
        0
      ]
    }
  ],
  "textures": [
    {
      "sampler": 0,
      "source": 0
    },
    {
      "sampler": 0,
      "source": 1
    },
    {
      "sampler": 0,
      "source": 2
    }
  ]
}

