{
  "accessors": [
    {
      "bufferView": 2,
      "componentType": 5126,
      "count": 7252,
      "max": [
        0.93216615915298462,
        0.99886161088943481,
        0.99886161088943481
      ],
      "min": [
        -3.6318879127502441,
        -0.99886137247085571,
        -0.99886137247085571
      ],
      "type": "VEC3"
    },
    {
      "bufferView": 2,
      "byteOffset": 87024,
      "componentType": 5126,
      "count": 7252,
      "max": [
        1,
        1,
        1
      ],
      "min": [
        -1,
        -1,
        -1
      ],
      "type": "VEC3"
    },
    {
      "bufferView": 3,
      "componentType": 5126,
      "count": 7252,
      "max": [
        0.99999994039535522,
        0.99999862909317017,
        0.9999929666519165,
        1
      ],
      "min": [
        -1,
        -0.99999290704727173,
        -0.99999880790710449,
        -1
      ],
      "type": "VEC4"
    },
    {
      "bufferView": 1,
      "componentType": 5126,
      "count": 7252,
      "max": [
        0.93416392803192139,
        0.98636519908905029
      ],
      "min": [
        0.019032061100006104,
        0.015857532620429993
      ],
      "type": "VEC2"
    },
    {
      "bufferView": 1,
      "byteOffset": 58016,
      "componentType": 5126,
      "count": 7252,
      "max": [
        0.93416392803192139,
        0.98636519908905029
      ],
      "min": [
        0.019032061100006104,
        0.015857532620429993
      ],
      "type": "VEC2"
    },
    {
      "bufferView": 1,
      "byteOffset": 116032,
      "componentType": 5126,
      "count": 7252,
      "max": [
        0.93416392803192139,
        0.98636519908905029
      ],
      "min": [
        0.019032061100006104,
        0.015857532620429993
      ],
      "type": "VEC2"
    },
    {
      "bufferView": 0,
      "componentType": 5125,
      "count": 36600,
      "max": [
        7251
      ],
      "min": [
        0
      ],
      "type": "SCALAR"
    },
    {
      "bufferView": 2,
      "byteOffset": 174048,
      "componentType": 5126,
      "count": 5114,
      "max": [
        1.0479731559753418,
        0.99951887130737305,
        0.99951887130737305
      ],
      "min": [
        -0.83394366502761841,
        -0.99951887130737305,
        -0.99951887130737305
      ],
      "type": "VEC3"
    },
    {
      "bufferView": 2,
      "byteOffset": 235416,
      "componentType": 5126,
      "count": 5114,
      "max": [
        1,
        0.99999749660491943,
        0.99999755620956421
      ],
      "min": [
        -0.99999594688415527,
        -0.99999749660491943,
        -0.99999755620956421
      ],
      "type": "VEC3"
    },
    {
      "bufferView": 1,
      "byteOffset": 174048,
      "componentType": 5126,
      "count": 5114,
      "max": [
        1,
        0.99800807237625122
      ],
      "min": [
        0,
        0
      ],
      "type": "VEC2"
    },
    {
      "bufferView": 0,
      "byteOffset": 146400,
      "componentType": 5125,
      "count": 29424,
      "max": [
        5113
      ],
      "min": [
        0
      ],
      "type": "SCALAR"
    }
  ],
  "asset": {
    "extras": {
      "author": "niver_mk (https://sketchfab.com/niver_mk)",
      "license": "CC-BY-4.0 (http://creativecommons.org/licenses/by/4.0/)",
      "source": "https://sketchfab.com/3d-models/eye-implant-e988ba5725fe4111b82f945a068c7c81",
      "title": "Eye Implant"
    },
    "generator": "Sketchfab-8.37.0",
    "version": "2.0"
  },
  "bufferViews": [
    {
      "buffer": 0,
      "byteLength": 264096,
      "byteOffset": 0,
      "name": "floatBufferViews",
      "target": 34963
    },
    {
      "buffer": 0,
      "byteLength": 214960,
      "byteOffset": 264096,
      "byteStride": 8,
      "name": "floatBufferViews",
      "target": 34962
    },
    {
      "buffer": 0,
      "byteLength": 296784,
      "byteOffset": 479056,
      "byteStride": 12,
      "name": "floatBufferViews",
      "target": 34962
    },
    {
      "buffer": 0,
      "byteLength": 116032,
      "byteOffset": 775840,
      "byteStride": 16,
      "name": "floatBufferViews",
      "target": 34962
    }
  ],
  "buffers": [
    {
      "byteLength": 891872,
      "uri": "scene.bin"
    }
  ],
  "images": [
    {
      "uri": "textures/eye_material_baseColor.png"
    },
    {
      "uri": "textures/eye_material_metallicRoughness.png"
    },
    {
      "uri": "textures/eye_material_normal.png"
    }
  ],
  "materials": [
    {
      "doubleSided": true,
      "name": "eye_material",
      "normalTexture": {
        "index": 2,
        "scale": 1,
        "texCoord": 0
      },
      "occlusionTexture": {
        "index": 1,
        "strength": 1,
        "texCoord": 0
      },
      "pbrMetallicRoughness": {
        "baseColorFactor": [
          1,
          1,
          1,
          1
        ],
        "baseColorTexture": {
          "index": 0,
          "texCoord": 0
        },
        "metallicFactor": 1,
        "metallicRoughnessTexture": {
          "index": 1,
          "texCoord": 0
        },
        "roughnessFactor": 1
      }
    },
    {
      "alphaMode": "BLEND",
      "doubleSided": true,
      "name": "sclera_material",
      "pbrMetallicRoughness": {
        "baseColorFactor": [
          0.80000000000000004,
          0.80000000000000004,
          0.80000000000000004,
          0.5
        ],
        "metallicFactor": 1,
        "roughnessFactor": 0
      }
    }
  ],
  "meshes": [
    {
      "name": "eye_eye_material_0",
      "primitives": [
        {
          "attributes": {
            "NORMAL": 1,
            "POSITION": 0,
            "TANGENT": 2,
            "TEXCOORD_0": 3,
            "TEXCOORD_1": 4,
            "TEXCOORD_2": 5
          },
          "indices": 6,
          "material": 0,
          "mode": 4
        }
      ]
    },
    {
      "name": "sclera_sclera_material_0",
      "primitives": [
        {
          "attributes": {
            "NORMAL": 8,
            "POSITION": 7,
            "TEXCOORD_0": 9
          },
          "indices": 10,
          "material": 1,
          "mode": 4
        }
      ]
    }
  ],
  "nodes": [
    {
      "children": [
        1
      ],
      "name": "RootNode (gltf orientation matrix)",
      "rotation": [
        -0.70710678118654746,
        -0,
        -0,
        0.70710678118654757
      ]
    },
    {
      "children": [
        2
      ],
      "matrix": [
        0.99592918157577515,
        0,
        -0.090139009058475494,
        0,
        0,
        1,
        0,
        0,
        0.090139009058475494,
        0,
        0.99592918157577515,
        0,
        -0.52593725919723511,
        0,
        -11.645586967468262,
        1
      ],
      "name": "RootNode (model correction matrix)"
    },
    {
      "children": [
        3
      ],
      "matrix": [
        1,
        0,
        0,
        0,
        0,
        0,
        1,
        0,
        0,
        -1,
        0,
        0,
        0,
        0,
        0,
        1
      ],
      "name": "eye_model.fbx"
    },
    {
      "children": [
        4,
        6
      ],
      "name": "RootNode"
    },
    {
      "children": [
        5
      ],
      "matrix": [
        100,
        0,
        0,
        0,
        0,
        -1.6292067939183141e-05,
        -99.999999999998678,
        0,
        0,
        99.999999999998678,
        -1.6292067939183141e-05,
        0,
        0,
        0,
        0,
        1
      ],
      "name": "eye"
    },
    {
      "mesh": 0,
      "name": "eye_eye_material_0"
    },
    {
      "children": [
        7
      ],
      "matrix": [
        100,
        0,
        0,
        0,
        0,
        -1.6292067939183141e-05,
        -99.999999999998678,
        0,
        0,
        99.999999999998678,
        -1.6292067939183141e-05,
        0,
        0,
        0,
        0,
        1
      ],
      "name": "sclera"
    },
    {
      "mesh": 1,
      "name": "sclera_sclera_material_0"
    }
  ],
  "samplers": [
    {
      "magFilter": 9729,
      "minFilter": 9987,
      "wrapS": 10497,
      "wrapT": 10497
    }
  ],
  "scene": 0,
  "scenes": [
    {
      "name": "OSG_Scene",
      "nodes": [
        0
      ]
    }
  ],
  "textures": [
    {
      "sampler": 0,
      "source": 0
    },
    {
      "sampler": 0,
      "source": 1
    },
    {
      "sampler": 0,
      "source": 2
    }
  ]
}

